<svg width="32" height="32" viewBox="0 0 32 32" fill="none" xmlns="http://www.w3.org/2000/svg">
<path fill-rule="evenodd" clip-rule="evenodd" d="M0 28.229C0 30.0667 1.49592 31.5562 3.32713 31.5562H28.229C30.0667 31.5562 31.5562 30.0602 31.5562 28.229V3.32713C31.5562 1.48947 30.0602 0 28.229 0H3.32713C1.48947 0 0 1.49592 0 3.32713V28.229ZM28.229 29.9764H3.32713C2.36639 29.9764 1.57974 29.1898 1.57974 28.229V24.0701L7.56342 18.0864L12.6766 23.1996C12.9861 23.5091 13.4826 23.5091 13.7921 23.1996L23.0256 13.9662L29.9764 20.9171V28.229C29.9764 29.1898 29.1898 29.9764 28.229 29.9764ZM28.229 1.57974H3.32713C2.36639 1.57974 1.57974 2.36639 1.57974 3.32713V21.8327L7.00245 16.41C7.31195 16.1005 7.80844 16.1005 8.11794 16.41L13.2311 21.5232L22.4646 12.2898C22.7741 11.9803 23.2706 11.9803 23.5801 12.2898L29.9764 18.6796V3.32713C29.9764 2.36639 29.1898 1.57974 28.229 1.57974Z" fill="black"/>
<path fill-rule="evenodd" clip-rule="evenodd" d="M13.7988 8.62732C13.7988 10.839 11.9998 12.6444 9.78171 12.6444C7.56362 12.6444 5.76465 10.839 5.76465 8.62732C5.76465 6.41568 7.57007 4.61026 9.78171 4.61026C11.9933 4.61026 13.7988 6.41568 13.7988 8.62732ZM12.219 8.62732C12.219 7.28615 11.1293 6.19 9.78171 6.19C8.43409 6.19 7.34439 7.28615 7.34439 8.62732C7.34439 9.96849 8.44054 11.0646 9.78171 11.0646C11.1229 11.0646 12.219 9.96849 12.219 8.62732Z" fill="black"/>
</svg>
